HIERARCHY
ROOT Hips
{
 OFFSET 0.000000 0.000000 0.000000
 CHANNELS 6 Xposition Yposition Zposition Yrotation Xrotation Zrotation
 JOINT Chest
 {
  OFFSET 0.000000 9.585900 0.002600
  CHANNELS 3 Yrotation Xrotation Zrotation
  JOINT Chest2
  {
   OFFSET 0.000000 9.601200 -0.005300
   CHANNELS 3 Yrotation Xrotation Zrotation
   JOINT Chest3
   {
    OFFSET 0.000000 9.561800 0.000000
    CHANNELS 3 Yrotation Xrotation Zrotation
    JOINT Chest4
    {
     OFFSET 0.000000 9.552100 0.000000
     CHANNELS 3 Yrotation Xrotation Zrotation
     JOINT Neck
     {
      OFFSET 0.000000 14.453000 0.000000
      CHANNELS 3 Yrotation Xrotation Zrotation
      JOINT Head
      {
       OFFSET 0.000000 8.936500 -0.011300
       CHANNELS 3 Yrotation Xrotation Zrotation
       End Site
       {
        OFFSET 0.000000 17.073600 -0.006000
       }
      }
     }
     JOINT RightCollar
     {
      OFFSET -2.921100 9.558500 0.000000
      CHANNELS 3 Yrotation Xrotation Zrotation
      JOINT RightShoulder
      {
       OFFSET -13.519700 0.000000 0.000000
       CHANNELS 3 Yrotation Xrotation Zrotation
       JOINT RightElbow
       {
        OFFSET 0.000000 -29.696600 0.000000
        CHANNELS 3 Yrotation Xrotation Zrotation
        JOINT RightWrist
        {
         OFFSET 0.000000 -24.004700 0.000000
         CHANNELS 3 Yrotation Xrotation Zrotation
         End Site
         {
          OFFSET 0.000000 -17.728500 0.000000
         }
        }
       }
      }
     }
     JOINT LeftCollar
     {
      OFFSET 2.921100 9.558500 0.000000
      CHANNELS 3 Yrotation Xrotation Zrotation
      JOINT LeftShoulder
      {
       OFFSET 13.519700 0.000000 0.000000
       CHANNELS 3 Yrotation Xrotation Zrotation
       JOINT LeftElbow
       {
        OFFSET 0.000000 -29.696600 0.000000
        CHANNELS 3 Yrotation Xrotation Zrotation
        JOINT LeftWrist
        {
         OFFSET 0.000000 -24.004700 0.000000
         CHANNELS 3 Yrotation Xrotation Zrotation
         End Site
         {
          OFFSET 0.000000 -17.728500 0.000000
         }
        }
       }
      }
     }
    }
   }
  }
 }
 JOINT RightHip
 {
  OFFSET -7.771700 -0.012900 -0.001300
  CHANNELS 3 Yrotation Xrotation Zrotation
  JOINT RightKnee
  {
   OFFSET 0.000000 -40.869800 0.001200
   CHANNELS 3 Yrotation Xrotation Zrotation
   JOINT RightAnkle
   {
    OFFSET 0.000000 -39.717900 0.002100
    CHANNELS 3 Yrotation Xrotation Zrotation
    JOINT RightToe
    {
     OFFSET 0.000000 -4.965400 11.033500
     CHANNELS 3 Yrotation Xrotation Zrotation
     End Site
     {
      OFFSET 0.000000 -1.423100 5.872300
     }
    }
   }
  }
 }
 JOINT LeftHip
 {
  OFFSET 7.771700 -0.012900 -0.001300
  CHANNELS 3 Yrotation Xrotation Zrotation
  JOINT LeftKnee
  {
   OFFSET 0.000000 -40.869800 0.001200
   CHANNELS 3 Yrotation Xrotation Zrotation
   JOINT LeftAnkle
   {
    OFFSET 0.000000 -39.717900 0.002100
    CHANNELS 3 Yrotation Xrotation Zrotation
    JOINT LeftToe
    {
     OFFSET 0.000000 -4.965400 11.033500
     CHANNELS 3 Yrotation Xrotation Zrotation
     End Site
     {
      OFFSET 0.000000 -1.423100 5.872300
     }
    }
   }
  }
 }
}
MOTION
Frames: 12
Frame Time: 0.008333
-23.862010 52.901204 5.248182 -177.865580 -16.023289 -2.206202 0.579860 15.814396 0.237641 0.057443 1.533110 0.031844 0.081076 2.558206 0.055700 0.559467 14.064320 0.355748 0.167200 17.556022 4.715131 -0.925395 -7.150250 4.989954 0.443943 0.021629 2.985343 2.136327 -9.727187 -6.024711 -122.937509 -80.269717 152.120901 -5.544828 -20.101911 -12.258194 -5.363785 -0.823583 0.215234 3.933363 -7.702763 9.784941 86.639005 -64.711086 -124.327804 1.736693 -14.934284 6.980470 2.916062 -62.627084 10.525115 -170.968711 86.082030 -172.660884 -11.546292 -22.131009 12.743897 0.029647 -0.073615 -0.017229 5.025471 -60.956153 -3.714580 120.044080 77.814879 118.235492 -6.840746 -19.675595 -1.432263 0.068643 0.216558 0.029717
-23.863660 52.900918 5.245385 -177.861675 -16.017539 -2.203196 0.584125 15.817668 0.234192 0.058668 1.534262 0.031883 0.088737 2.561638 0.056695 0.570388 14.069899 0.357801 0.152745 17.538301 4.724031 -0.939701 -7.164774 5.002786 0.416137 -0.005742 2.988360 2.133489 -9.726875 -6.023488 -122.959294 -80.264285 152.136009 -5.539864 -20.111859 -12.258908 -5.391168 -0.844783 0.228570 3.929897 -7.704588 9.789755 86.644345 -64.719847 -124.333857 1.746785 -14.939855 6.986975 2.925456 -62.634006 10.525998 -170.763282 86.075907 -172.436053 -11.602901 -22.140136 12.747316 0.023856 -0.056301 -0.012041 5.026208 -60.961418 -3.721839 120.044576 77.813307 118.234463 -6.839099 -19.673258 -1.434825 0.067668 0.213756 0.031280
-23.865667 52.900679 5.242565 -177.865444 -16.014233 -2.194676 0.592536 15.821477 0.225924 0.056094 1.531673 0.033313 0.095015 2.569155 0.055216 0.600913 14.087613 0.358184 0.122997 17.508424 4.738175 -0.944511 -7.178473 5.012619 0.378210 -0.052128 2.995360 2.128860 -9.716026 -6.018602 -122.961170 -80.262453 152.135136 -5.540001 -20.111782 -12.254816 -5.434246 -0.885324 0.257877 3.932545 -7.698293 9.787193 86.641594 -64.716012 -124.328101 1.746979 -14.942919 6.990728 2.945477 -62.642476 10.554117 -170.039498 86.068484 -171.663600 -11.916727 -22.125103 12.791818 0.008170 -0.027540 0.001208 5.041369 -60.965216 -3.736152 120.068810 77.812382 118.255699 -6.836434 -19.670735 -1.434672 0.063324 0.208215 0.031877
-23.865413 52.900590 5.239715 -177.867741 -16.013092 -2.198553 0.602573 15.825877 0.229708 0.053801 1.529929 0.035218 0.100754 2.575141 0.054789 0.606179 14.087787 0.357549 0.115925 17.497981 4.746306 -0.949808 -7.194149 5.022121 0.365435 -0.069372 2.998312 2.123130 -9.714931 -6.015355 -122.963256 -80.261407 152.137178 -5.538401 -20.107072 -12.251825 -5.447861 -0.919718 0.296052 3.934916 -7.680028 9.769704 86.638687 -64.716286 -124.327691 1.748752 -14.942340 6.992971 2.942533 -62.644173 10.576742 -169.992507 86.067401 -171.592174 -12.073872 -22.127267 12.812664 -0.025515 -0.011447 0.003222 5.034284 -60.968794 -3.726167 120.094570 77.810898 118.282757 -6.832798 -19.671390 -1.436814 0.061465 0.205465 0.030744
-23.863826 52.900576 5.237208 -177.878177 -16.012590 -2.206396 0.620554 15.828472 0.240429 0.056188 1.533364 0.033202 0.102933 2.576834 0.054420 0.603088 14.082251 0.360891 0.124708 17.492491 4.748799 -0.964249 -7.206374 5.033933 0.357783 -0.084271 2.993843 2.119115 -9.716994 -6.009662 -123.039476 -80.257312 152.201740 -5.535457 -20.058614 -12.234985 -5.454912 -0.937755 0.318798 3.939293 -7.671877 9.760509 86.638708 -64.714987 -124.331904 1.745410 -14.934844 6.992667 2.935481 -62.639775 10.566310 -170.534678 86.069855 -172.162144 -11.897825 -22.159120 12.794569 -0.003412 -0.017134 -0.005360 5.022495 -60.971271 -3.701714 120.106674 77.799873 118.294680 -6.833790 -19.679763 -1.437815 0.055471 0.207090 0.028207
-23.862994 52.900428 5.235633 -177.876617 -16.008729 -2.211081 0.621795 15.825680 0.244834 0.061980 1.537007 0.032003 0.104374 2.577378 0.054722 0.611710 14.083398 0.363198 0.114195 17.483895 4.753918 -0.967387 -7.219256 5.042254 0.336524 -0.122404 2.996860 2.118259 -9.698214 -6.008857 -123.038995 -80.263097 152.201195 -5.530171 -20.041374 -12.229624 -5.475997 -0.958493 0.345044 3.943880 -7.666130 9.752066 86.640977 -64.715381 -124.336936 1.729949 -14.943030 6.990613 2.929774 -62.639779 10.553405 -170.874698 86.070449 -172.521472 -11.801225 -22.181810 12.790989 0.018648 -0.019191 -0.008066 5.011786 -60.975405 -3.691950 120.100969 77.796395 118.288848 -6.830738 -19.684569 -1.440486 0.051248 0.210581 0.027727
-23.863398 52.900425 5.234044 -177.872059 -16.007692 -2.207571 0.626344 15.827643 0.236452 0.062418 1.537343 0.032031 0.105224 2.578049 0.054740 0.621465 14.085755 0.360129 0.107914 17.470426 4.765849 -0.967508 -7.254600 5.051127 0.317674 -0.145997 3.009095 2.109449 -9.718837 -6.003394 -122.929568 -80.284540 152.097907 -5.524941 -20.031285 -12.227047 -5.497234 -0.970651 0.371393 3.943868 -7.671538 9.757304 86.640070 -64.711461 -124.346433 1.726366 -14.948172 6.999339 2.951721 -62.644839 10.563443 -170.415534 86.065653 -172.026286 -12.062333 -22.165210 12.836921 0.008686 -0.002825 0.003559 5.013761 -60.975684 -3.699855 120.088990 77.792288 118.275204 -6.831437 -19.685480 -1.440706 0.051670 0.209790 0.026554
-23.863817 52.900522 5.232721 -177.869956 -16.007428 -2.201874 0.635158 15.828106 0.228904 0.057706 1.537672 0.032615 0.106113 2.578382 0.054346 0.620577 14.085369 0.361882 0.116870 17.448818 4.762422 -0.978695 -7.257085 5.064338 0.311290 -0.155823 3.011679 2.111229 -9.724216 -6.000995 -122.922842 -80.292994 152.087389 -5.520726 -20.029338 -12.225901 -5.506926 -0.993915 0.398294 3.946086 -7.659456 9.750020 86.682843 -64.725920 -124.404772 1.745963 -14.949155 7.013974 2.962304 -62.648638 10.575228 -170.064390 86.060962 -171.649946 -12.264646 -22.149279 12.868661 0.000462 0.008462 0.012208 5.020086 -60.974577 -3.713270 120.069084 77.786955 118.256036 -6.829358 -19.686101 -1.443645 0.053285 0.206085 0.024380
-23.863396 52.900772 5.231569 -177.870341 -16.007961 -2.199525 0.642695 15.827397 0.227087 0.058167 1.539815 0.032419 0.107043 2.578381 0.053387 0.625665 14.085271 0.357715 0.111378 17.442150 4.771744 -0.978038 -7.275067 5.067738 0.298661 -0.165807 3.018957 2.111357 -9.720072 -5.997461 -122.959253 -80.291642 152.126848 -5.516808 -20.028662 -12.231512 -5.523123 -1.013863 0.425560 3.946509 -7.652005 9.749686 86.691129 -64.724578 -124.419610 1.755485 -14.949000 7.023575 2.977925 -62.649148 10.554769 -170.195418 86.060134 -171.784355 -12.221798 -22.154359 12.865354 0.004899 -0.009145 0.007255 5.026334 -60.971006 -3.717103 120.071176 77.793558 118.258972 -6.825500 -19.693485 -1.446244 0.053597 0.211634 0.026426
-23.862996 52.901158 5.230493 -177.872709 -16.009502 -2.195903 0.646522 15.827876 0.223750 0.062880 1.538296 0.032465 0.107964 2.578605 0.052757 0.634897 14.084812 0.351098 0.103411 17.438156 4.783377 -0.979178 -7.292932 5.069734 0.278360 -0.179345 3.026368 2.118059 -9.724789 -5.989165 -122.926706 -80.297721 152.102153 -5.511606 -20.023575 -12.244624 -5.544157 -1.033686 0.452869 3.949022 -7.645095 9.752655 86.673054 -64.714305 -124.403868 1.756688 -14.949361 7.025538 2.996149 -62.646899 10.522262 -170.501169 86.057947 -172.102944 -12.088697 -22.169339 12.846044 0.011762 -0.020699 0.001597 5.032362 -60.966175 -3.723944 120.051660 77.795569 118.242761 -6.821248 -19.696678 -1.451676 0.053321 0.214885 0.026691
-23.862598 52.901441 5.230142 -177.871848 -16.007324 -2.192571 0.645890 15.825159 0.218755 0.067906 1.541814 0.028181 0.106199 2.574206 0.054825 0.636343 14.085245 0.352511 0.106179 17.417354 4.780122 -0.984863 -7.295952 5.076461 0.276403 -0.198341 3.023855 2.118265 -9.726224 -5.983551 -122.870476 -80.297834 152.051175 -5.507882 -20.013147 -12.256515 -5.554163 -1.063347 0.474447 3.950924 -7.635022 9.753844 86.646805 -64.702627 -124.377558 1.752801 -14.957068 7.023961 3.002412 -62.650739 10.522745 -170.349590 86.055208 -171.941341 -12.117842 -22.167790 12.846615 0.009423 -0.020840 0.002445 5.037851 -60.963688 -3.728016 120.036052 77.802633 118.227630 -6.825126 -19.702400 -1.452708 0.059452 0.218745 0.027717
-23.862273 52.901799 5.229795 -177.866358 -16.005460 -2.189495 0.641363 15.827477 0.210495 0.071260 1.541799 0.033214 0.103119 2.574333 0.049833 0.638038 14.085496 0.352436 0.107896 17.403686 4.783552 -0.987104 -7.299240 5.077507 0.275580 -0.236634 3.016811 2.113637 -9.711522 -5.975530 -122.828083 -80.292339 152.013532 -5.507609 -20.016719 -12.258213 -5.559152 -1.080098 0.486966 3.945206 -7.646972 9.764888 86.644748 -64.697630 -124.380012 1.753076 -14.956379 7.027941 3.018599 -62.653709 10.512511 -170.176904 86.052954 -171.758065 -12.134606 -22.171655 12.851452 0.006276 -0.018802 0.000135 5.041098 -60.963687 -3.736776 120.026084 77.805532 118.217062 -6.821501 -19.702138 -1.451762 0.059699 0.219084 0.026061
